<svg width="1600" height="1200" viewBox="0 0 1600 1200" fill="none" xmlns="http://www.w3.org/2000/svg">
  <defs>
    <linearGradient id="glow" x1="0" y1="0" x2="1" y2="1">
      <stop stop-color="#22D3EE" stop-opacity="0.55" />
      <stop offset="0.5" stop-color="#7C3AED" stop-opacity="0.45" />
      <stop offset="1" stop-color="#0EA5E9" stop-opacity="0.6" />
    </linearGradient>
  </defs>
  <rect width="1600" height="1200" fill="url(#glow)" opacity="0.08"/>
  <g stroke="url(#glow)" stroke-width="1">
    <g opacity="0.7">
      <line x1="0" y1="100" x2="1600" y2="100" />
      <line x1="0" y1="200" x2="1600" y2="200" />
      <line x1="0" y1="300" x2="1600" y2="300" />
      <line x1="0" y1="400" x2="1600" y2="400" />
      <line x1="0" y1="500" x2="1600" y2="500" />
      <line x1="0" y1="600" x2="1600" y2="600" />
      <line x1="0" y1="700" x2="1600" y2="700" />
      <line x1="0" y1="800" x2="1600" y2="800" />
      <line x1="0" y1="900" x2="1600" y2="900" />
      <line x1="0" y1="1000" x2="1600" y2="1000" />
      <line x1="0" y1="1100" x2="1600" y2="1100" />
    </g>
    <g opacity="0.7">
      <line x1="100" y1="0" x2="100" y2="1200" />
      <line x1="200" y1="0" x2="200" y2="1200" />
      <line x1="300" y1="0" x2="300" y2="1200" />
      <line x1="400" y1="0" x2="400" y2="1200" />
      <line x1="500" y1="0" x2="500" y2="1200" />
      <line x1="600" y1="0" x2="600" y2="1200" />
      <line x1="700" y1="0" x2="700" y2="1200" />
      <line x1="800" y1="0" x2="800" y2="1200" />
      <line x1="900" y1="0" x2="900" y2="1200" />
      <line x1="1000" y1="0" x2="1000" y2="1200" />
      <line x1="1100" y1="0" x2="1100" y2="1200" />
      <line x1="1200" y1="0" x2="1200" y2="1200" />
      <line x1="1300" y1="0" x2="1300" y2="1200" />
      <line x1="1400" y1="0" x2="1400" y2="1200" />
      <line x1="1500" y1="0" x2="1500" y2="1200" />
    </g>
  </g>
  <g opacity="0.3" stroke="#22D3EE" stroke-width="2">
    <circle cx="300" cy="260" r="120" />
    <circle cx="1250" cy="320" r="180" />
    <circle cx="820" cy="980" r="160" />
  </g>
</svg>
